<?xml version="1.0" encoding="UTF-8" standalone="no"?>
<svg width="512" height="512" viewBox="0 0 512 512" fill="none" xmlns="http://www.w3.org/2000/svg">
  <!-- 背景圆形 -->
  <circle cx="256" cy="256" r="200" fill="#2D3748"/>
  
  <!-- 文件夹 -->
  <path d="M156 166C156 160.477 160.477 156 166 156H246L266 176H346C351.523 176 356 180.477 356 186V336C356 341.523 351.523 346 346 346H166C160.477 346 156 341.523 156 336V166Z" fill="#FFD166"/>
  
  <!-- 文件夹顶部 -->
  <path d="M166 156H226L246 136H286L306 156H346C351.523 156 356 160.477 356 166V186H156V166C156 160.477 160.477 156 166 156Z" fill="#FFBD36"/>
  
  <!-- 文件夹阴影 -->
  <path d="M156 326V336C156 341.523 160.477 346 166 346H346C351.523 346 356 341.523 356 336V326H156Z" fill="#E8B93B"/>
</svg> 