<?xml version="1.0" encoding="UTF-8" standalone="no"?>
<svg width="512" height="512" viewBox="0 0 512 512" fill="none" xmlns="http://www.w3.org/2000/svg">
  <!-- 文件夹背景 -->
  <path d="M76 120C76 108.954 84.9543 100 96 100H246L286 140H416C427.046 140 436 148.954 436 160V390C436 401.046 427.046 410 416 410H96C84.9543 410 76 401.046 76 390V120Z" fill="#FFD166"/>
  
  <!-- 文件夹顶部 -->
  <path d="M96 100H216L236 80H316L336 100H416C427.046 100 436 108.954 436 120V150H76V120C76 108.954 84.9543 100 96 100Z" fill="#FFBD36"/>
  
  <!-- 文件夹阴影 -->
  <path d="M76 380V390C76 401.046 84.9543 410 96 410H416C427.046 410 436 401.046 436 390V380H76Z" fill="#E8B93B"/>
  
  <!-- 文件图标 -->
  <path d="M170 180H240V340H170V180Z" fill="#FFFFFF"/>
  <path d="M240 180H310V340H240V180Z" fill="#F0F0F0"/>
  <path d="M310 180H350V340H310V180Z" fill="#E6E6E6"/>
  
  <!-- 文件图标阴影 -->
  <path d="M170 330H350V340H170V330Z" fill="#CCCCCC"/>
</svg> 