<?xml version="1.0" encoding="UTF-8" standalone="no"?>
<svg width="512" height="512" viewBox="0 0 512 512" fill="none" xmlns="http://www.w3.org/2000/svg">
  <!-- 背景圆形 -->
  <circle cx="256" cy="256" r="200" fill="#2D3748"/>
  
  <!-- 文件夹 -->
  <path d="M156 176C156 170.477 160.477 166 166 166H246L266 186H346C351.523 186 356 190.477 356 196V346C356 351.523 351.523 356 346 356H166C160.477 356 156 351.523 156 346V176Z" fill="#FFD166"/>
  
  <!-- 文件夹顶部 -->
  <path d="M166 166H226L246 146H286L306 166H346C351.523 166 356 170.477 356 176V196H156V176C156 170.477 160.477 166 166 166Z" fill="#FFBD36"/>
  
  <!-- 文件夹阴影 -->
  <path d="M156 336V346C156 351.523 160.477 356 166 356H346C351.523 356 356 351.523 356 346V336H156Z" fill="#E8B93B"/>
  
  <!-- 柠檬 -->
  <g transform="translate(230, 230) scale(0.6) rotate(15)">
    <!-- 柠檬主体 -->
    <ellipse cx="45" cy="60" rx="45" ry="60" fill="#F6E05E"/>
    
    <!-- 柠檬高光 -->
    <ellipse cx="35" cy="40" rx="20" ry="30" fill="#FAF089" fill-opacity="0.6"/>
    
    <!-- 柠檬顶部小柄 -->
    <path d="M45 0C45 0 40 10 40 15C40 20 50 20 50 15C50 10 45 0 45 0Z" fill="#68D391"/>
    
    <!-- 柠檬纹理线 -->
    <path d="M20 30C30 50 60 70 70 90" stroke="#ECC94B" stroke-width="2" stroke-linecap="round"/>
    <path d="M30 25C40 50 50 75 60 100" stroke="#ECC94B" stroke-width="2" stroke-linecap="round"/>
    <path d="M65 30C55 50 35 70 25 90" stroke="#ECC94B" stroke-width="2" stroke-linecap="round"/>
  </g>

  <!-- 文件夹前面的柠檬小图标 -->
  <g transform="translate(166, 186) scale(0.3)">
    <!-- 柠檬主体 -->
    <ellipse cx="45" cy="60" rx="45" ry="60" fill="#F6E05E"/>
    
    <!-- 柠檬高光 -->
    <ellipse cx="35" cy="40" rx="20" ry="30" fill="#FAF089" fill-opacity="0.6"/>
    
    <!-- 柠檬顶部小柄 -->
    <path d="M45 0C45 0 40 10 40 15C40 20 50 20 50 15C50 10 45 0 45 0Z" fill="#68D391"/>
  </g>
</svg> 